<svg xmlns="http://www.w3.org/2000/svg" width="360" height="360" fill="none"><path fill="#8F76D6" fill-rule="evenodd" d="M180 360c99.411 0 180-80.589 180-180S279.411 0 180 0 0 80.589 0 180s80.589 180 180 180Zm1-57c69.036 0 125-55.964 125-125S250.036 53 181 53 56 108.964 56 178s55.964 125 125 125Z" clip-rule="evenodd"/><path fill="#fff" d="M183.338 195.997c18.472 11.573 41.84 28.487 52.523 40.282L255 215.359c-11.573-11.573-36.053-27.374-53.635-37.611l-18.027 18.249Zm-65.875-55.861c12.018 10.238 26.261 25.371 32.492 35.386l20.92-15.801c-6.676-10.237-21.81-24.481-33.828-34.05l-19.584 14.465ZM224.288 123c-8.902 12.463-24.481 28.264-36.276 37.834l19.807 13.353c12.24-8.902 27.819-22.7 41.395-35.831L224.288 123ZM105 211.131l15.356 23.59c15.801-9.57 35.386-22.033 53.19-34.05l-8.457-23.146c-22.033 12.908-44.955 26.039-60.089 33.606Z"/></svg>