<svg xmlns="http://www.w3.org/2000/svg" width="1325" height="360" fill="none"><path fill="#8F76D6" fill-rule="evenodd" d="M180 360c99.411 0 180-80.589 180-180S279.411 0 180 0 0 80.589 0 180s80.589 180 180 180Zm1-57c69.036 0 125-55.964 125-125S250.036 53 181 53 56 108.964 56 178s55.964 125 125 125Z" clip-rule="evenodd"/><path fill="#fff" d="M183.338 195.997c18.472 11.573 41.84 28.487 52.523 40.282L255 215.359c-11.573-11.573-36.053-27.374-53.635-37.611l-18.027 18.249Zm-65.875-55.861c12.018 10.238 26.261 25.371 32.492 35.386l20.92-15.801c-6.676-10.237-21.81-24.481-33.828-34.05l-19.584 14.465ZM224.288 123c-8.902 12.463-24.481 28.264-36.276 37.834l19.807 13.353c12.24-8.902 27.819-22.7 41.395-35.831L224.288 123ZM105 211.131l15.356 23.59c15.801-9.57 35.386-22.033 53.19-34.05l-8.457-23.146c-22.033 12.908-44.955 26.039-60.089 33.606ZM506.47 153.078c-.375-4.698-2.137-8.363-5.285-10.994-3.101-2.631-7.823-3.947-14.166-3.947-4.041 0-7.353.493-9.937 1.48-2.537.94-4.417 2.232-5.638 3.876-1.222 1.645-1.856 3.524-1.903 5.638-.094 1.739.211 3.313.916 4.722.752 1.363 1.926 2.608 3.524 3.736 1.597 1.08 3.641 2.067 6.131 2.96 2.491.892 5.451 1.691 8.88 2.396l11.84 2.537c7.988 1.691 14.824 3.923 20.509 6.695 5.685 2.772 10.336 6.038 13.954 9.796 3.618 3.712 6.273 7.894 7.964 12.545 1.738 4.652 2.631 9.726 2.678 15.223-.047 9.491-2.42 17.525-7.118 24.103-4.698 6.578-11.417 11.581-20.156 15.011-8.692 3.43-19.146 5.145-31.362 5.145-12.545 0-23.492-1.856-32.842-5.568-9.303-3.711-16.538-9.42-21.707-17.125-5.121-7.753-7.705-17.666-7.752-29.741h37.211c.235 4.416 1.339 8.128 3.313 11.135 1.973 3.007 4.745 5.286 8.316 6.836 3.618 1.551 7.917 2.326 12.897 2.326 4.182 0 7.682-.517 10.501-1.551 2.819-1.033 4.957-2.466 6.413-4.299 1.457-1.832 2.209-3.923 2.256-6.272-.047-2.208-.776-4.135-2.185-5.779-1.363-1.692-3.618-3.195-6.766-4.511-3.148-1.362-7.4-2.631-12.756-3.805l-14.377-3.101c-12.78-2.772-22.858-7.4-30.234-13.884-7.33-6.531-10.971-15.434-10.924-26.711-.047-9.161 2.396-17.172 7.329-24.032 4.981-6.907 11.864-12.286 20.65-16.139 8.833-3.853 18.958-5.779 30.375-5.779 11.652 0 21.73 1.95 30.234 5.85 8.504 3.899 15.059 9.396 19.663 16.491 4.652 7.048 7.001 15.293 7.048 24.737H506.47ZM560.843 252.309V107.973h39.185v56.381h51.87v-56.381h39.185v144.336h-39.185v-56.381h-51.87v56.381h-39.185ZM748.873 107.973v144.336h-39.184V107.973h39.184ZM767.444 252.309V107.973h62.583c10.994 0 20.226 1.48 27.697 4.44 7.517 2.96 13.179 7.142 16.985 12.545 3.852 5.403 5.779 11.77 5.779 19.099 0 5.309-1.175 10.149-3.524 14.518-2.302 4.37-5.544 8.035-9.726 10.995-4.182 2.913-9.068 4.933-14.659 6.06v1.41c6.202.235 11.84 1.809 16.914 4.722 5.075 2.866 9.115 6.836 12.122 11.91 3.007 5.028 4.511 10.948 4.511 17.76 0 7.894-2.068 14.918-6.202 21.073-4.088 6.155-9.914 10.994-17.478 14.518-7.565 3.524-16.586 5.286-27.063 5.286h-67.939Zm39.185-31.292h18.323c6.578 0 11.511-1.221 14.8-3.665 3.289-2.49 4.934-6.155 4.934-10.994 0-3.383-.776-6.249-2.326-8.598-1.55-2.349-3.759-4.135-6.625-5.356-2.819-1.222-6.225-1.833-10.219-1.833h-18.887v30.446Zm0-54.689h16.068c3.43 0 6.46-.541 9.092-1.621 2.631-1.081 4.674-2.631 6.131-4.652 1.503-2.067 2.255-4.581 2.255-7.541 0-4.463-1.597-7.87-4.792-10.219-3.195-2.396-7.236-3.594-12.122-3.594h-16.632v27.627ZM985.427 107.973h39.183v92.465c0 10.994-2.63 20.509-7.89 28.543-5.22 7.987-12.5 14.166-21.85 18.535-9.349 4.323-20.203 6.484-32.56 6.484-12.45 0-23.351-2.161-32.701-6.484-9.349-4.369-16.632-10.548-21.847-18.535-5.168-8.034-7.752-17.549-7.752-28.543v-92.465h39.184v89.082c0 4.464.987 8.457 2.96 11.981 1.974 3.477 4.699 6.202 8.175 8.175 3.524 1.974 7.518 2.96 11.981 2.96 4.511 0 8.505-.986 11.981-2.96 3.477-1.973 6.202-4.698 8.176-8.175 1.973-3.524 2.96-7.517 2.96-11.981v-89.082ZM1037.31 107.973h43.7l28.19 58.637h1.13l28.19-58.637h43.69l-52.99 98.949v45.387h-38.91v-45.387l-53-98.949ZM1217.75 252.309h-42.28l47.64-144.336h53.56l47.64 144.336h-42.28l-31.58-104.587h-1.13l-31.57 104.587Zm-7.89-56.945h79.5v29.318h-79.5v-29.318Z"/></svg>